<svg version="1.1" viewBox="0.0 0.0 256.0 256.0" fill="none" stroke="none" stroke-linecap="square" stroke-miterlimit="10" xmlns:xlink="http://www.w3.org/1999/xlink" xmlns="http://www.w3.org/2000/svg"><clipPath id="p.0"><path d="m0 0l256.0 0l0 256.0l-256.0 0l0 -256.0z" clip-rule="nonzero"/></clipPath><g clip-path="url(#p.0)"><path fill="#000000" fill-opacity="0.0" d="m0 0l256.0 0l0 256.0l-256.0 0z" fill-rule="evenodd"/><path fill="#cc0000" d="m111.21967 96.00541l127.9685 127.9685l-15.212601 15.212601l-127.9685 -127.968506z" fill-rule="evenodd"/><path stroke="#cc0000" stroke-width="1.0" stroke-linejoin="round" stroke-linecap="butt" d="m111.21967 96.00541l127.9685 127.9685l-15.212601 15.212601l-127.9685 -127.968506z" fill-rule="evenodd"/><path fill="#6aa84f" d="m45.47591 104.87351l0 0c0 -32.389114 26.256557 -58.64567 58.645664 -58.64567l0 0c15.5538025 0 30.470558 6.1787224 41.468758 17.176918c10.998199 10.998196 17.17691 25.914951 17.17691 41.468754l0 0c0 32.389107 -26.256561 58.645668 -58.645668 58.645668l0 0c-32.389107 0 -58.645664 -26.256561 -58.645664 -58.645668zm18.874523 0l0 0c0 21.964996 17.806145 39.77114 39.77114 39.77114c21.965004 0 39.771156 -17.806145 39.771156 -39.77114l0 0c0 -21.965004 -17.806152 -39.77115 -39.771156 -39.77115l0 0c-21.964996 0 -39.77114 17.806145 -39.77114 39.77115z" fill-rule="evenodd"/><path stroke="#6aa84f" stroke-width="1.0" stroke-linejoin="round" stroke-linecap="butt" d="m45.47591 104.87351l0 0c0 -32.389114 26.256557 -58.64567 58.645664 -58.64567l0 0c15.5538025 0 30.470558 6.1787224 41.468758 17.176918c10.998199 10.998196 17.17691 25.914951 17.17691 41.468754l0 0c0 32.389107 -26.256561 58.645668 -58.645668 58.645668l0 0c-32.389107 0 -58.645664 -26.256561 -58.645664 -58.645668zm18.874523 0l0 0c0 21.964996 17.806145 39.77114 39.77114 39.77114c21.965004 0 39.771156 -17.806145 39.771156 -39.77114l0 0c0 -21.965004 -17.806152 -39.77115 -39.771156 -39.77115l0 0c-21.964996 0 -39.77114 17.806145 -39.77114 39.77115z" fill-rule="evenodd"/><path fill="#cc0000" d="m239.18637 105.803665l-133.35434 133.35432l-15.181099 -15.181091l133.35434 -133.35434z" fill-rule="evenodd"/><path stroke="#cc0000" stroke-width="1.0" stroke-linejoin="round" stroke-linecap="butt" d="m239.18637 105.803665l-133.35434 133.35432l-15.181099 -15.181091l133.35434 -133.35434z" fill-rule="evenodd"/><path fill="#cc0000" d="m63.73516 48.522312l62.992126 62.992123l-15.212601 15.212601l-62.992126 -62.992126z" fill-rule="evenodd"/><path stroke="#cc0000" stroke-width="1.0" stroke-linejoin="round" stroke-linecap="butt" d="m63.73516 48.522312l62.992126 62.992123l-15.212601 15.212601l-62.992126 -62.992126z" fill-rule="evenodd"/><path fill="#cc0000" d="m48.71654 64.05639l-24.236221 -39.574802l39.574802 24.236221z" fill-rule="evenodd"/><path stroke="#cc0000" stroke-width="1.0" stroke-linejoin="round" stroke-linecap="butt" d="m48.71654 64.05639l-24.236221 -39.574802l39.574802 24.236221z" fill-rule="evenodd"/></g></svg>