<svg version="1.1" viewBox="0.0 0.0 256.0 256.0" fill="none" stroke="none" stroke-linecap="square" stroke-miterlimit="10" xmlns:xlink="http://www.w3.org/1999/xlink" xmlns="http://www.w3.org/2000/svg"><clipPath id="p.0"><path d="m0 0l256.0 0l0 256.0l-256.0 0l0 -256.0z" clip-rule="nonzero"/></clipPath><g clip-path="url(#p.0)"><path fill="#ffffff" d="m0 0l256.0 0l0 256.0l-256.0 0z" fill-rule="evenodd"/><path fill="#6aa84f" d="m39.661602 128.47546l0 0c0 -48.792404 39.554058 -88.346466 88.34645 -88.346466l0 0c23.430939 0 45.902206 9.307903 62.470383 25.87608c16.568176 16.568176 25.876083 39.039444 25.876083 62.470383l0 0c0 48.79239 -39.55406 88.34645 -88.346466 88.34645l0 0c-48.792397 0 -88.34645 -39.55406 -88.34645 -88.34645zm29.364597 0l0 0c0 32.574783 26.407074 58.981857 58.981857 58.981857c32.574783 0 58.981857 -26.407074 58.981857 -58.981857c0 -32.57479 -26.407074 -58.981865 -58.981857 -58.981865l0 0c-32.574783 0 -58.981857 26.407074 -58.981857 58.981865z" fill-rule="evenodd"/><path stroke="#6aa84f" stroke-width="1.0" stroke-linejoin="round" stroke-linecap="butt" d="m39.661602 128.47546l0 0c0 -48.792404 39.554058 -88.346466 88.34645 -88.346466l0 0c23.430939 0 45.902206 9.307903 62.470383 25.87608c16.568176 16.568176 25.876083 39.039444 25.876083 62.470383l0 0c0 48.79239 -39.55406 88.34645 -88.346466 88.34645l0 0c-48.792397 0 -88.34645 -39.55406 -88.34645 -88.34645zm29.364597 0l0 0c0 32.574783 26.407074 58.981857 58.981857 58.981857c32.574783 0 58.981857 -26.407074 58.981857 -58.981857c0 -32.57479 -26.407074 -58.981865 -58.981857 -58.981865l0 0c-32.574783 0 -58.981857 26.407074 -58.981857 58.981865z" fill-rule="evenodd"/><path fill="#000000" d="m0 0l256.0 0l0 256.0l-256.0 0zm24.896 24.896l0 206.20801l206.20801 0l0 -206.20801z" fill-rule="evenodd"/><path fill="#cc0000" d="m38.61516 197.3414l159.2126 -159.2126l19.559052 19.559055l-159.21259 159.2126z" fill-rule="evenodd"/><path fill="#cc0000" d="m197.82762 217.8714l-159.2126 -159.2126l19.559055 -19.559055l159.21259 159.2126z" fill-rule="evenodd"/></g></svg>