<svg version="1.1" viewBox="0.0 0.0 256.0 256.0" fill="none" stroke="none" stroke-linecap="square" stroke-miterlimit="10" xmlns:xlink="http://www.w3.org/1999/xlink" xmlns="http://www.w3.org/2000/svg"><clipPath id="p.0"><path d="m0 0l256.0 0l0 256.0l-256.0 0l0 -256.0z" clip-rule="nonzero"/></clipPath><g clip-path="url(#p.0)"><path fill="#000000" fill-opacity="0.0" d="m0 0l256.0 0l0 256.0l-256.0 0z" fill-rule="evenodd"/><path fill="#6aa84f" d="m7.6115484E-6 128.00002l0 0c0 -70.692444 57.307552 -128.0 127.99999 -128.0l0 0c33.947723 0 66.50502 13.485676 90.509674 37.490334c24.004654 24.004654 37.490326 56.56196 37.490326 90.50967l0 0c0 70.692444 -57.30754 128.00002 -128.0 128.00002l0 0c-70.692444 0 -127.99999 -57.30757 -127.99999 -128.00002zm42.54464 0l0 0c0 47.195694 38.259666 85.45537 85.45535 85.45537c47.195694 0 85.45537 -38.259674 85.45537 -85.45537c0 -47.195694 -38.259674 -85.45536 -85.45537 -85.45536l0 0c-47.195686 0 -85.45535 38.259666 -85.45535 85.45536z" fill-rule="evenodd"/><path stroke="#6aa84f" stroke-width="1.0" stroke-linejoin="round" stroke-linecap="butt" d="m7.6115484E-6 128.00002l0 0c0 -70.692444 57.307552 -128.0 127.99999 -128.0l0 0c33.947723 0 66.50502 13.485676 90.509674 37.490334c24.004654 24.004654 37.490326 56.56196 37.490326 90.50967l0 0c0 70.692444 -57.30754 128.00002 -128.0 128.00002l0 0c-70.692444 0 -127.99999 -57.30757 -127.99999 -128.00002zm42.54464 0l0 0c0 47.195694 38.259666 85.45537 85.45535 85.45537c47.195694 0 85.45537 -38.259674 85.45537 -85.45537c0 -47.195694 -38.259674 -85.45536 -85.45537 -85.45536l0 0c-47.195686 0 -85.45535 38.259666 -85.45535 85.45536z" fill-rule="evenodd"/></g></svg>